<?xml version="1.0" encoding="utf-8"?><svg xmlns="http://www.w3.org/2000/svg" xmlns:xlink="http://www.w3.org/1999/xlink" width="1333" height="666" preserveAspectRatio="xMidYMid" viewBox="0 0 1333 666" style="z-index:1;margin-right:-2px;display:block;background-repeat-y:initial;background-repeat-x:initial;animation-play-state:paused" ><g transform="translate(666.5,333) scale(1,1) translate(-666.5,-333)" style="transform:matrix(1, 0, 0, 1, 0, 0);animation-play-state:paused" ><defs style="animation-play-state:paused" ><path id="path-qek3d5pare-1" d="M-35 -35L35 -35L35 35L-35 35Z" fill="none" stroke="inherit" stroke-width="7.500000000000001" transform="scale(0.12)" style="transform:matrix(0.12, 0, 0, 0.12, 0, 0);animation-play-state:paused" ></path>

  
<path id="path-qek3d5pare-2" d="M0 -37A37 37 0 0 1 0 37A37 37 0 0 1 0 -37" fill="none" stroke="inherit" stroke-width="7.500000000000001" transform="scale(0.12)" style="transform:matrix(0.12, 0, 0, 0.12, 0, 0);animation-play-state:paused" ></path>

  
<path id="path-qek3d5pare-3" d="M0 -34.641L40 34.641L-40 34.641Z" fill="none" stroke="inherit" stroke-width="7.500000000000001" transform="scale(0.12)" style="transform:matrix(0.12, 0, 0, 0.12, 0, 0);animation-play-state:paused" ></path></defs>
<path id="path0" d="M 40.256126543306216 200.41397577840942
c 0 51.533228144458775 -12.609194120452678 14.802097445748798 -27.411291566201474 14.802097445748798
S -14.566456589096733 251.9472039228682 -14.566456589096733 200.41397577840942
s 12.609194120452678 -14.802097445748798 27.411291566201474 -14.802097445748798
S 40.256126543306216 148.88074763395065 40.256126543306216 200.41397577840942
z" fill="none" stroke="none" style="animation-play-state:paused" ></path>


<use xlink:href="#path-qek3d5pare-3" x="0" y="0" stroke="#e80c57" transform="translate(32.8295783996582 227.4973907470703)" style="animation-play-state:paused" ></use>
<path id="path1" d="M 120.6866539703858 347.7936278676724
c 0 52.720956983203365 -12.899808623549758 15.143253601558415 -28.043062225108173 15.143253601558415
S 64.60052952016946 400.51458485087574 64.60052952016946 347.7936278676724
s 12.899808623549758 -15.143253601558415 28.043062225108173 -15.143253601558415
S 120.6866539703858 295.07267088446906 120.6866539703858 347.7936278676724
z" fill="none" stroke="none" style="animation-play-state:paused" ></path>


<use xlink:href="#path-qek3d5pare-3" x="0" y="0" stroke="#e401ff" transform="translate(119.71085357666016 366.88629150390625)" style="animation-play-state:paused" ></use>
<path id="path2" d="M 179.8568577447959 306.1367667398996
c 0 39.6945933604483 -9.712506886067136 11.40163851842664 -21.114145404493776 11.40163851842664
S 137.62856693580835 345.8313601003479 137.62856693580835 306.1367667398996
s 9.712506886067136 -11.40163851842664 21.114145404493776 -11.40163851842664
S 179.8568577447959 266.4421733794513 179.8568577447959 306.1367667398996
z" fill="none" stroke="none" style="animation-play-state:paused" ></path>


<use xlink:href="#path-qek3d5pare-1" x="0" y="0" stroke="#e80c57" transform="translate(178.3931121826172 323.9738464355469)" style="animation-play-state:paused" ></use>
<path id="path3" d="M 315.11886340305216 461.76939650682357
c 0 51.442472581934986 -12.58698797217558 14.7760293586409 -27.36301733081648 14.7760293586409
S 260.3928287414192 513.2118690887586 260.3928287414192 461.76939650682357
s 12.58698797217558 -14.7760293586409 27.36301733081648 -14.7760293586409
S 315.11886340305216 410.3269239248886 315.11886340305216 461.76939650682357
z" fill="none" stroke="none" style="animation-play-state:paused" ></path>


<use xlink:href="#path-qek3d5pare-3" x="0" y="0" stroke="#e80c57" transform="translate(314.8371276855469 473.3224182128906)" style="animation-play-state:paused" ></use>
<path id="path4" d="M 381.1476862183619 323.7915636293544
c 0 59.3309434916535 -14.51714574795777 17.0418667476026 -31.559012495560374 17.0418667476026
S 318.0296612272412 383.1225071210079 318.0296612272412 323.7915636293544
s 14.51714574795777 -17.0418667476026 31.559012495560374 -17.0418667476026
S 381.1476862183619 264.4606201377009 381.1476862183619 323.7915636293544
z" fill="none" stroke="none" style="animation-play-state:paused" ></path>


<use xlink:href="#path-qek3d5pare-2" x="0" y="0" stroke="#e401ff" transform="translate(356.72998046875 343.01873779296875)" style="animation-play-state:paused" ></use>
<path id="path5" d="M 458.902544300465 63.76117193226493
c 0 43.69503851543887 -10.691339211224403 12.550702552306909 -23.24204176353131 12.550702552306909
S 412.41846077340244 107.4562104477038 412.41846077340244 63.76117193226493
s 10.691339211224403 -12.550702552306909 23.24204176353131 -12.550702552306909
S 458.902544300465 20.066133416826062 458.902544300465 63.76117193226493
z" fill="none" stroke="none" style="animation-play-state:paused" ></path>


<use xlink:href="#path-qek3d5pare-3" x="0" y="0" stroke="#ff401f" transform="translate(445.6684265136719 81.39225769042969)" style="animation-play-state:paused" ></use>
<path id="path6" d="M 533.5973311007049 482.19137019458816
c 0 64.54356724290894 -15.792574963690482 18.539109739984482 -34.331684703674966 18.539109739984482
S 464.93396169335495 546.7349374374971 464.93396169335495 482.19137019458816
s 15.792574963690482 -18.539109739984482 34.331684703674966 -18.539109739984482
S 533.5973311007049 417.64780295167924 533.5973311007049 482.19137019458816
z" fill="none" stroke="none" style="animation-play-state:paused" ></path>


<use xlink:href="#path-qek3d5pare-2" x="0" y="0" stroke="#e80c57" transform="translate(529.38330078125 515.0729370117188)" style="animation-play-state:paused" ></use>
<path id="path7" d="M 619.3030804382049 563.4320027516497
c 0 52.484156348439605 -12.841868042703306 15.075236397956056 -27.91710444065936 15.075236397956056
S 563.4688715568861 615.9161591000893 563.4688715568861 563.4320027516497
s 12.841868042703306 -15.075236397956056 27.91710444065936 -15.075236397956056
S 619.3030804382049 510.9478464032101 619.3030804382049 563.4320027516497
z" fill="none" stroke="none" style="animation-play-state:paused" ></path>


<use xlink:href="#path-qek3d5pare-2" x="0" y="0" stroke="#e401ff" transform="translate(594.8775634765625 579.1331176757812)" style="animation-play-state:paused" ></use>
<path id="path8" d="M 621.2997410859217 367.32987640298273
c 0 46.66918039583917 -11.419054777705329 13.404977347741038 -24.824032125446365 13.404977347741038
S 571.651676835029 413.9990567988219 571.651676835029 367.32987640298273
s 11.419054777705329 -13.404977347741038 24.824032125446365 -13.404977347741038
S 621.2997410859217 320.66069600714354 621.2997410859217 367.32987640298273
z" fill="none" stroke="none" style="animation-play-state:paused" ></path>


<use xlink:href="#path-qek3d5pare-1" x="0" y="0" stroke="#e401ff" transform="translate(619.8167724609375 387.4444274902344)" style="animation-play-state:paused" ></use>
<path id="path9" d="M 714.6528057429994 555.3293498047814
c 0 41.23017716410133 -10.088234838024793 11.842710462029105 -21.930945300053896 11.842710462029105
S 670.7909151428917 596.5595269688827 670.7909151428917 555.3293498047814
s 10.088234838024793 -11.842710462029105 21.930945300053896 -11.842710462029105
S 714.6528057429994 514.0991726406801 714.6528057429994 555.3293498047814
z" fill="none" stroke="none" style="animation-play-state:paused" ></path>


<use xlink:href="#path-qek3d5pare-1" x="0" y="0" stroke="#ff401f" transform="translate(713.4130249023438 572.8137817382812)" style="animation-play-state:paused" ></use>
<path id="path10" d="M 794.9815999859916 480.1774602057228
c 0 60.02967930223442 -14.688113020759484 17.24256745915244 -31.930680479911928 17.24256745915244
S 731.1202390261678 540.2071395079572 731.1202390261678 480.1774602057228
s 14.688113020759484 -17.24256745915244 31.930680479911928 -17.24256745915244
S 794.9815999859916 420.1477809034884 794.9815999859916 480.1774602057228
z" fill="none" stroke="none" style="animation-play-state:paused" ></path>


<use xlink:href="#path-qek3d5pare-2" x="0" y="0" stroke="#e80c57" transform="translate(789.408447265625 512.0192260742188)" style="animation-play-state:paused" ></use>
<path id="path11" d="M 883.4117867745396 574.1425996935484
c 0 48.815609927221246 -11.944244982192432 14.021504979095464 -25.965749961287898 14.021504979095464
S 831.4802868519638 622.9582096207696 831.4802868519638 574.1425996935484
s 11.944244982192432 -14.021504979095464 25.965749961287898 -14.021504979095464
S 883.4117867745396 525.3269897663272 883.4117867745396 574.1425996935484
z" fill="none" stroke="none" style="animation-play-state:paused" ></path>


<use xlink:href="#path-qek3d5pare-2" x="0" y="0" stroke="#e401ff" transform="translate(868.9099731445312 594.0812377929688)" style="animation-play-state:paused" ></use>
<path id="path12" d="M 958.7026551868032 367.41887606645514
c 0 51.24125538090884 -12.53775397617982 14.718232928558923 -27.25598690473874 14.718232928558923
S 904.1906813773257 418.660131447364 904.1906813773257 367.41887606645514
s 12.53775397617982 -14.718232928558923 27.25598690473874 -14.718232928558923
S 958.7026551868032 316.1776206855463 958.7026551868032 367.41887606645514
z" fill="none" stroke="none" style="animation-play-state:paused" ></path>


<use xlink:href="#path-qek3d5pare-1" x="0" y="0" stroke="#e80c57" transform="translate(917.329833984375 390.1504821777344)" style="animation-play-state:paused" ></use>
<path id="path13" d="M 1036.0811845554033 371.33540498251097
c 0 56.315616614546684 -13.779353001431634 16.17576221907192 -29.955115220503554 16.17576221907192
S 976.1709541143963 427.65102159705765 976.1709541143963 371.33540498251097
s 13.779353001431634 -16.17576221907192 29.955115220503554 -16.17576221907192
S 1036.0811845554033 315.0197883679643 1036.0811845554033 371.33540498251097
z" fill="none" stroke="none" style="animation-play-state:paused" ></path>


<use xlink:href="#path-qek3d5pare-2" x="0" y="0" stroke="#ff401f" transform="translate(1021.3201904296875 396.0398254394531)" style="animation-play-state:paused" ></use>
<path id="path14" d="M 1097.8019499355646 303.2926080809776
c 0 30.34425637876177 -7.424658475654475 8.71590342794221 -16.140561903596687 8.71590342794221
S 1065.520826128371 333.63686445973934 1065.520826128371 303.2926080809776
s 7.424658475654475 -8.71590342794221 16.140561903596687 -8.71590342794221
S 1097.8019499355646 272.9483517022158 1097.8019499355646 303.2926080809776
z" fill="none" stroke="none" style="animation-play-state:paused" ></path>


<use xlink:href="#path-qek3d5pare-2" x="0" y="0" stroke="#e80c57" transform="translate(1089.5572509765625 316.3509521484375)" style="animation-play-state:paused" ></use>
<path id="path15" d="M 1157.1913784889653 486.0433302374542
c 0 45.74220384525802 -11.192241366392919 13.138718125765601 -24.33095949215852 13.138718125765601
S 1108.529459504648 531.7855340827123 1108.529459504648 486.0433302374542
s 11.192241366392919 -13.138718125765601 24.33095949215852 -13.138718125765601
S 1157.1913784889653 440.3011263921962 1157.1913784889653 486.0433302374542
z" fill="none" stroke="none" style="animation-play-state:paused" ></path>


<use xlink:href="#path-qek3d5pare-3" x="0" y="0" stroke="#e401ff" transform="translate(1157.147705078125 490.6866760253906)" style="animation-play-state:paused" ></use>
<path id="path16" d="M 1246.1906550153324 186.526416328587
c 0 20.50596865493105 -5.017417862376745 5.890012273224876 -10.907430135601622 5.890012273224876
S 1224.3757947441293 207.03238498351806 1224.3757947441293 186.526416328587
s 5.017417862376745 -5.890012273224876 10.907430135601622 -5.890012273224876
S 1246.1906550153324 166.02044767365595 1246.1906550153324 186.526416328587
z" fill="none" stroke="none" style="animation-play-state:paused" ></path>


<use xlink:href="#path-qek3d5pare-2" x="0" y="0" stroke="#ff401f" transform="translate(1231.03173828125 194.4307098388672)" style="animation-play-state:paused" ></use>
<path id="path17" d="M 1345.7064135522496 383.31150246383504
c 0 50.745434419538434 -12.416436081376425 14.57581626944189 -26.992252350818315 14.57581626944189
S 1291.721908850613 434.05693688337345 1291.721908850613 383.31150246383504
s 12.416436081376425 -14.57581626944189 26.992252350818315 -14.57581626944189
S 1345.7064135522496 332.5660680442966 1345.7064135522496 383.31150246383504
z" fill="none" stroke="none" style="animation-play-state:paused" ></path>


<use xlink:href="#path-qek3d5pare-2" x="0" y="0" stroke="#ff401f" transform="translate(1304.7010498046875 405.8515930175781)" style="animation-play-state:paused" ></use></g></svg>