<svg id="visual" viewBox="0 0 1350 650" width="1350" height="650" xmlns="http://www.w3.org/2000/svg" xmlns:xlink="http://www.w3.org/1999/xlink" version="1.1"><rect x="0" y="0" width="1350" height="650" fill="#191920"></rect><defs><linearGradient id="grad1_0" x1="51.9%" y1="0%" x2="100%" y2="100%"><stop offset="8.461538461538456%" stop-color="#6d0ce8" stop-opacity="1"></stop><stop offset="91.53846153846153%" stop-color="#6d0ce8" stop-opacity="1"></stop></linearGradient></defs><defs><linearGradient id="grad1_1" x1="51.9%" y1="0%" x2="100%" y2="100%"><stop offset="8.461538461538456%" stop-color="#6d0ce8" stop-opacity="1"></stop><stop offset="91.53846153846153%" stop-color="#2a2985" stop-opacity="1"></stop></linearGradient></defs><defs><linearGradient id="grad1_2" x1="51.9%" y1="0%" x2="100%" y2="100%"><stop offset="8.461538461538456%" stop-color="#191920" stop-opacity="1"></stop><stop offset="91.53846153846153%" stop-color="#2a2985" stop-opacity="1"></stop></linearGradient></defs><defs><linearGradient id="grad2_0" x1="0%" y1="0%" x2="48.1%" y2="100%"><stop offset="8.461538461538456%" stop-color="#6d0ce8" stop-opacity="1"></stop><stop offset="91.53846153846153%" stop-color="#6d0ce8" stop-opacity="1"></stop></linearGradient></defs><defs><linearGradient id="grad2_1" x1="0%" y1="0%" x2="48.1%" y2="100%"><stop offset="8.461538461538456%" stop-color="#2a2985" stop-opacity="1"></stop><stop offset="91.53846153846153%" stop-color="#6d0ce8" stop-opacity="1"></stop></linearGradient></defs><defs><linearGradient id="grad2_2" x1="0%" y1="0%" x2="48.1%" y2="100%"><stop offset="8.461538461538456%" stop-color="#2a2985" stop-opacity="1"></stop><stop offset="91.53846153846153%" stop-color="#191920" stop-opacity="1"></stop></linearGradient></defs><g transform="translate(1350, 0)"><path d="M0 292.5C-35.9 295.9 -71.8 299.3 -89.6 275.8C-107.4 252.3 -107 201.8 -134.6 185.3C-162.2 168.7 -217.8 186.1 -236.6 171.9C-255.4 157.8 -237.4 112.1 -240.6 78.2C-243.8 44.3 -268.1 22.1 -292.5 0L0 0Z" fill="#202352"></path><path d="M0 195C-23.9 197.3 -47.9 199.6 -59.7 183.9C-71.6 168.2 -71.3 134.5 -89.7 123.5C-108.1 112.5 -145.2 124.1 -157.8 114.6C-170.3 105.2 -158.3 74.7 -160.4 52.1C-162.5 29.5 -178.8 14.8 -195 0L0 0Z" fill="#4427b8"></path><path d="M0 97.5C-12 98.6 -23.9 99.8 -29.9 91.9C-35.8 84.1 -35.7 67.3 -44.9 61.8C-54.1 56.2 -72.6 62 -78.9 57.3C-85.1 52.6 -79.1 37.4 -80.2 26.1C-81.3 14.8 -89.4 7.4 -97.5 0L0 0Z" fill="#6d0ce8"></path></g><g transform="translate(0, 650)"><path d="M0 -292.5C38.8 -301.1 77.5 -309.6 90.4 -278.2C103.2 -246.7 90.2 -175.3 112.3 -154.5C134.4 -133.7 191.7 -163.6 217.6 -158.1C243.6 -152.7 238.1 -112 245.4 -79.7C252.6 -47.5 272.6 -23.7 292.5 0L0 0Z" fill="#202352"></path><path d="M0 -195C25.8 -200.7 51.7 -206.4 60.3 -185.5C68.8 -164.5 60.1 -116.9 74.8 -103C89.6 -89.1 127.8 -109 145.1 -105.4C162.4 -101.8 158.7 -74.6 163.6 -53.2C168.4 -31.7 181.7 -15.8 195 0L0 0Z" fill="#4427b8"></path><path d="M0 -97.5C12.9 -100.4 25.8 -103.2 30.1 -92.7C34.4 -82.2 30.1 -58.4 37.4 -51.5C44.8 -44.6 63.9 -54.5 72.5 -52.7C81.2 -50.9 79.4 -37.3 81.8 -26.6C84.2 -15.8 90.9 -7.9 97.5 0L0 0Z" fill="#6d0ce8"></path></g></svg>