<svg id="visual" viewBox="0 0 1350 650" width="1350" height="650" xmlns="http://www.w3.org/2000/svg" xmlns:xlink="http://www.w3.org/1999/xlink" version="1.1"><rect x="0" y="0" width="1350" height="650" fill="#191920"></rect><defs><linearGradient id="grad1_0" x1="51.9%" y1="0%" x2="100%" y2="100%"><stop offset="8.461538461538456%" stop-color="#6d0ce8" stop-opacity="1"></stop><stop offset="91.53846153846153%" stop-color="#6d0ce8" stop-opacity="1"></stop></linearGradient></defs><defs><linearGradient id="grad1_1" x1="51.9%" y1="0%" x2="100%" y2="100%"><stop offset="8.461538461538456%" stop-color="#6d0ce8" stop-opacity="1"></stop><stop offset="91.53846153846153%" stop-color="#2a2985" stop-opacity="1"></stop></linearGradient></defs><defs><linearGradient id="grad1_2" x1="51.9%" y1="0%" x2="100%" y2="100%"><stop offset="8.461538461538456%" stop-color="#191920" stop-opacity="1"></stop><stop offset="91.53846153846153%" stop-color="#2a2985" stop-opacity="1"></stop></linearGradient></defs><defs><linearGradient id="grad2_0" x1="0%" y1="0%" x2="48.1%" y2="100%"><stop offset="8.461538461538456%" stop-color="#6d0ce8" stop-opacity="1"></stop><stop offset="91.53846153846153%" stop-color="#6d0ce8" stop-opacity="1"></stop></linearGradient></defs><defs><linearGradient id="grad2_1" x1="0%" y1="0%" x2="48.1%" y2="100%"><stop offset="8.461538461538456%" stop-color="#2a2985" stop-opacity="1"></stop><stop offset="91.53846153846153%" stop-color="#6d0ce8" stop-opacity="1"></stop></linearGradient></defs><defs><linearGradient id="grad2_2" x1="0%" y1="0%" x2="48.1%" y2="100%"><stop offset="8.461538461538456%" stop-color="#2a2985" stop-opacity="1"></stop><stop offset="91.53846153846153%" stop-color="#191920" stop-opacity="1"></stop></linearGradient></defs><g transform="translate(1350, 0)"><path d="M0 292.5C-20.1 255.8 -40.2 219.1 -69.8 214.9C-99.5 210.8 -138.7 239.1 -171.9 236.6C-205.1 234.2 -232.3 200.9 -226.5 164.6C-220.7 128.2 -181.9 88.8 -187.4 60.9C-192.9 32.9 -242.7 16.5 -292.5 0L0 0Z" fill="#202352"></path><path d="M0 195C-13.4 170.5 -26.8 146.1 -46.6 143.3C-66.3 140.5 -92.5 159.4 -114.6 157.8C-136.8 156.1 -154.9 133.9 -151 109.7C-147.1 85.5 -121.2 59.2 -124.9 40.6C-128.6 22 -161.8 11 -195 0L0 0Z" fill="#4427b8"></path><path d="M0 97.5C-6.7 85.3 -13.4 73 -23.3 71.6C-33.2 70.3 -46.2 79.7 -57.3 78.9C-68.4 78.1 -77.4 67 -75.5 54.9C-73.6 42.7 -60.6 29.6 -62.5 20.3C-64.3 11 -80.9 5.5 -97.5 0L0 0Z" fill="#6d0ce8"></path></g><g transform="translate(0, 650)"><path d="M0 -292.5C33.7 -295.2 67.3 -297.9 89.6 -275.8C111.9 -253.7 122.8 -206.9 126.4 -173.9C129.9 -141 126.2 -121.8 156.1 -113.4C186.1 -105.1 249.8 -107.5 278.2 -90.4C306.5 -73.3 299.5 -36.6 292.5 0L0 0Z" fill="#202352"></path><path d="M0 -195C22.4 -196.8 44.9 -198.6 59.7 -183.9C74.6 -169.2 81.9 -137.9 84.2 -116C86.6 -94 84.1 -81.2 104.1 -75.6C124.1 -70.1 166.6 -71.7 185.5 -60.3C204.4 -48.9 199.7 -24.4 195 0L0 0Z" fill="#4427b8"></path><path d="M0 -97.5C11.2 -98.4 22.4 -99.3 29.9 -91.9C37.3 -84.6 40.9 -69 42.1 -58C43.3 -47 42.1 -40.6 52 -37.8C62 -35 83.3 -35.8 92.7 -30.1C102.2 -24.4 99.8 -12.2 97.5 0L0 0Z" fill="#6d0ce8"></path></g></svg>