<?xml version="1.0" encoding="utf-8"?><svg xmlns="http://www.w3.org/2000/svg" xmlns:xlink="http://www.w3.org/1999/xlink" width="1333" height="666" preserveAspectRatio="xMidYMid" viewBox="0 0 1333 666" style="z-index:1;margin-right:-2px;display:block;background-repeat-y:initial;background-repeat-x:initial;animation-play-state:paused" ><g transform="translate(666.5,333) scale(1,1) translate(-666.5,-333)" style="transform:matrix(1, 0, 0, 1, 0, 0);animation-play-state:paused" ><defs style="animation-play-state:paused" ><path id="path-t29hhs174vc-1" d="M-35 -35L35 -35L35 35L-35 35Z" fill="none" stroke="inherit" stroke-width="4.090909090909091" transform="scale(0.22)" style="transform:matrix(0.22, 0, 0, 0.22, 0, 0);animation-play-state:paused" ></path>

  
<path id="path-t29hhs174vc-2" d="M0 -37A37 37 0 0 1 0 37A37 37 0 0 1 0 -37" fill="none" stroke="inherit" stroke-width="4.090909090909091" transform="scale(0.22)" style="transform:matrix(0.22, 0, 0, 0.22, 0, 0);animation-play-state:paused" ></path>

  
<path id="path-t29hhs174vc-3" d="M0 -34.641L40 34.641L-40 34.641Z" fill="none" stroke="inherit" stroke-width="4.090909090909091" transform="scale(0.22)" style="transform:matrix(0.22, 0, 0, 0.22, 0, 0);animation-play-state:paused" ></path></defs>
<path id="path0" d="M 100.87484294199177 366.99053122894037
c 0 45.39799417867509 -11.108019852229011 13.0398493917471 -24.14786924397611 13.0398493917471
S 52.57910445403956 412.3885254076155 52.57910445403956 366.99053122894037
s 11.108019852229011 -13.0398493917471 24.14786924397611 -13.0398493917471
S 100.87484294199177 321.59253705026526 100.87484294199177 366.99053122894037
z" fill="none" stroke="none" style="animation-play-state:paused" ></path>


<use xlink:href="#path-t29hhs174vc-1" x="0" y="0" stroke="#29292e" transform="translate(83.44245147705078 382.47698974609375)" style="animation-play-state:paused" ></use>
<path id="path1" d="M 186.36696507620803 292.64248748109236
c 0 30.245919145845253 -7.4005972378132 8.687657626998105 -16.088254864811304 8.687657626998105
S 154.1904553465854 322.88840662693764 154.1904553465854 292.64248748109236
s 7.4005972378132 -8.687657626998105 16.088254864811304 -8.687657626998105
S 186.36696507620803 262.3965683352471 186.36696507620803 292.64248748109236
z" fill="none" stroke="none" style="animation-play-state:paused" ></path>


<use xlink:href="#path-t29hhs174vc-2" x="0" y="0" stroke="#29292e" transform="translate(186.3654327392578 293.3695068359375)" style="animation-play-state:paused" ></use>
<path id="path2" d="M 265.075535921849 186.44745804275567
c 0 64.83791336536514 -15.864595823440405 18.623655966647434 -34.488251790087844 18.623655966647434
S 196.0990323416733 251.2853714081208 196.0990323416733 186.44745804275567
s 15.864595823440405 -18.623655966647434 34.488251790087844 -18.623655966647434
S 265.075535921849 121.60954467739053 265.075535921849 186.44745804275567
z" fill="none" stroke="none" style="animation-play-state:paused" ></path>


<use xlink:href="#path-t29hhs174vc-3" x="0" y="0" stroke="#29292e" transform="translate(249.5648956298828 216.17263793945312)" style="animation-play-state:paused" ></use>
<path id="path3" d="M 378.20913838433546 589.7804723500212
c 0 39.2634156419475 -9.6070059549446 11.277789599282793 -20.884795554227395 11.277789599282793
S 336.4395472758807 629.0438879919687 336.4395472758807 589.7804723500212
s 9.6070059549446 -11.277789599282793 20.884795554227395 -11.277789599282793
S 378.20913838433546 550.5170567080737 378.20913838433546 589.7804723500212
z" fill="none" stroke="none" style="animation-play-state:paused" ></path>


<use xlink:href="#path-t29hhs174vc-1" x="0" y="0" stroke="#29292e" transform="translate(339.55963134765625 610.3271484375)" style="animation-play-state:paused" ></use>
<path id="path4" d="M 436.7810080289913 24.17855180187648
c 0 24.38625859304569 -5.966850506809051 7.004563638428017 -12.971414145237068 7.004563638428017
S 410.83817973851717 48.56481039492217 410.83817973851717 24.17855180187648
s 5.966850506809051 -7.004563638428017 12.971414145237068 -7.004563638428017
S 436.7810080289913 -0.20770679116920832 436.7810080289913 24.17855180187648
z" fill="none" stroke="none" style="animation-play-state:paused" ></path>


<use xlink:href="#path-t29hhs174vc-2" x="0" y="0" stroke="#29292e" transform="translate(429.1023254394531 33.77289581298828)" style="animation-play-state:paused" ></use>
<path id="path5" d="M 516.3037778821677 428.4089073571421
c 0 59.553540331976684 -14.571610932292165 17.105804137908198 -31.67741507020036 17.105804137908198
S 452.9489477417669 487.9624476891188 452.9489477417669 428.4089073571421
s 14.571610932292165 -17.105804137908198 31.67741507020036 -17.105804137908198
S 516.3037778821677 368.8553670251654 516.3037778821677 428.4089073571421
z" fill="none" stroke="none" style="animation-play-state:paused" ></path>


<use xlink:href="#path-t29hhs174vc-1" x="0" y="0" stroke="#29292e" transform="translate(454.06793212890625 450.0909729003906)" style="animation-play-state:paused" ></use>
<path id="path6" d="M 578.0826527538983 314.4235666350256
c 0 37.61288454297266 -9.203152600940117 10.803700879364486 -20.006853480304603 10.803700879364486
S 538.0689457932891 352.0364511779983 538.0689457932891 314.4235666350256
s 9.203152600940117 -10.803700879364486 20.006853480304603 -10.803700879364486
S 578.0826527538983 276.81068209205296 578.0826527538983 314.4235666350256
z" fill="none" stroke="none" style="animation-play-state:paused" ></path>


<use xlink:href="#path-t29hhs174vc-2" x="0" y="0" stroke="#29292e" transform="translate(549.0401611328125 329.95947265625)" style="animation-play-state:paused" ></use>
<path id="path7" d="M 718.6671691865438 114.74086672836332
c 0 50.06268860517694 -12.249381254458186 14.379708429146566 -26.629089683604754 14.379708429146566
S 665.4089898193342 164.80355533354026 665.4089898193342 114.74086672836332
s 12.249381254458186 -14.379708429146566 26.629089683604754 -14.379708429146566
S 718.6671691865438 64.67817812318637 718.6671691865438 114.74086672836332
z" fill="none" stroke="none" style="animation-play-state:paused" ></path>


<use xlink:href="#path-t29hhs174vc-1" x="0" y="0" stroke="#29292e" transform="translate(701.5936889648438 133.3802490234375)" style="animation-play-state:paused" ></use>
<path id="path8" d="M 730.5822163694656 630.2932549254236
c 0 24.761252169124365 -6.0586042541474505 7.112274559216574 -13.170878813364023 7.112274559216574
S 704.2404587427377 655.0545070945481 704.2404587427377 630.2932549254236
s 6.0586042541474505 -7.112274559216574 13.170878813364023 -7.112274559216574
S 730.5822163694656 605.5320027562992 730.5822163694656 630.2932549254236
z" fill="none" stroke="none" style="animation-play-state:paused" ></path>


<use xlink:href="#path-t29hhs174vc-3" x="0" y="0" stroke="#29292e" transform="translate(730.58203125 630.389892578125)" style="animation-play-state:paused" ></use>
<path id="path9" d="M 839.6436047625615 78.93540470500142
c 0 48.822487101656584 -11.945927695086185 14.02348033770987 -25.969408032796053 14.02348033770987
S 787.7047886969693 127.757891806658 787.7047886969693 78.93540470500142
s 11.945927695086185 -14.02348033770987 25.969408032796053 -14.02348033770987
S 839.6436047625615 30.112917603344833 839.6436047625615 78.93540470500142
z" fill="none" stroke="none" style="animation-play-state:paused" ></path>


<use xlink:href="#path-t29hhs174vc-3" x="0" y="0" stroke="#29292e" transform="translate(811.7897338867188 93.16084289550781)" style="animation-play-state:paused" ></use>
<path id="path10" d="M 936.8111856316941 248.64522109516486
c 0 21.45677214806147 -5.2500612702703595 6.163115404230423 -11.413176674500782 6.163115404230423
S 913.9848322826927 270.10199324322633 913.9848322826927 248.64522109516486
s 5.2500612702703595 -6.163115404230423 11.413176674500782 -6.163115404230423
S 936.8111856316941 227.18844894710338 936.8111856316941 248.64522109516486
z" fill="none" stroke="none" style="animation-play-state:paused" ></path>


<use xlink:href="#path-t29hhs174vc-1" x="0" y="0" stroke="#29292e" transform="translate(936.5823974609375 254.97267150878906)" style="animation-play-state:paused" ></use>
<path id="path11" d="M 1076.3755163990159 455.6777543014407
c 0 36.02417611943939 -8.814426071777723 10.347369736434718 -19.16179580821244 10.347369736434718
S 1038.051924782591 491.7019304208801 1038.051924782591 455.6777543014407
s 8.814426071777723 -10.347369736434718 19.16179580821244 -10.347369736434718
S 1076.3755163990159 419.6535781820013 1076.3755163990159 455.6777543014407
z" fill="none" stroke="none" style="animation-play-state:paused" ></path>


<use xlink:href="#path-t29hhs174vc-1" x="0" y="0" stroke="#29292e" transform="translate(1075.7158203125 468.6715087890625)" style="animation-play-state:paused" ></use>
<path id="path12" d="M 1135.5193086571842 282.6905085286435
c 0 26.822032579721682 -6.562837758868071 7.704200847366866 -14.267038606234937 7.704200847366866
S 1106.9852314447141 309.51254110836516 1106.9852314447141 282.6905085286435
s 6.562837758868071 -7.704200847366866 14.267038606234937 -7.704200847366866
S 1135.5193086571842 255.8684759489218 1135.5193086571842 282.6905085286435
z" fill="none" stroke="none" style="animation-play-state:paused" ></path>


<use xlink:href="#path-t29hhs174vc-3" x="0" y="0" stroke="#29292e" transform="translate(1135.124267578125 291.6347961425781)" style="animation-play-state:paused" ></use>
<path id="path13" d="M 1173.0388884071726 381.88314818115657
c 0 45.76699756042124 -11.198307913720088 13.145839724801846 -24.34414763852193 13.145839724801846
S 1124.3505931301288 427.65014574157783 1124.3505931301288 381.88314818115657
s 11.198307913720088 -13.145839724801846 24.34414763852193 -13.145839724801846
S 1173.0388884071726 336.1161506207353 1173.0388884071726 381.88314818115657
z" fill="none" stroke="none" style="animation-play-state:paused" ></path>


<use xlink:href="#path-t29hhs174vc-1" x="0" y="0" stroke="#29292e" transform="translate(1172.6923828125 393.64794921875)" style="animation-play-state:paused" ></use>
<path id="path14" d="M 1331.751646580173 235.38774224990885
c 0 33.22962269026342 -8.130652360383602 9.544678857841621 -17.675331218225224 9.544678857841621
S 1296.4009841437226 268.61736494017225 1296.4009841437226 235.38774224990885
s 8.130652360383602 -9.544678857841621 17.675331218225224 -9.544678857841621
S 1331.751646580173 202.15811955964543 1331.751646580173 235.38774224990885
z" fill="none" stroke="none" style="animation-play-state:paused" ></path>


<use xlink:href="#path-t29hhs174vc-3" x="0" y="0" stroke="#29292e" transform="translate(1300.107666015625 253.11326599121094)" style="animation-play-state:paused" ></use></g></svg>